<?xml version="1.0" standalone="no"?>
<!DOCTYPE svg PUBLIC "-//W3C//DTD SVG 20010904//EN" "http://www.w3.org/TR/2001/REC-SVG-20010904/DTD/svg10.dtd">
<svg version="1.0" xmlns="http://www.w3.org/2000/svg" width="24px" height="24px" viewBox="0 0 76.000000 76.000000" preserveAspectRatio="xMidYMid meet">
	<g transform="translate(0.000000,76.000000) scale(0.100000,-0.100000)" fill="#000000" stroke="none">
		<path d="M315 624 c-60 -15 -145 -47 -145 -54 0 -4 24 1 53 12 82 31 190 35
274 9 39 -11 75 -27 81 -34 6 -7 12 -37 14 -67 3 -49 6 -55 26 -58 13 -2 31 0
40 4 13 6 10 8 -13 13 -29 6 -30 8 -33 68 l-3 61 -52 23 c-51 22 -192 35 -242
23z" fill="#fff" />
		<path d="M84 371 l1 -224 134 -58 c74 -33 140 -59 147 -59 18 0 285 117 299
131 5 5 -42 -13 -105 -42 -183 -82 -158 -81 -315 -13 -76 32 -139 63 -141 69
-3 6 -8 102 -13 215 l-8 205 1 -224z" fill="#fff" />
		<path d="M208 514 c-5 -4 -8 -29 -8 -55 l0 -47 124 -51 c69 -28 132 -51 140
-51 41 0 5 22 -114 71 l-129 53 -3 44 c-2 24 -6 40 -10 36z" fill="#fff" />
		<path d="M323 503 c-41 -8 -24 -21 20 -16 61 7 127 -12 127 -37 0 -15 7 -20
28 -20 43 0 59 16 24 23 -17 4 -31 14 -34 25 -8 27 -89 40 -165 25z" fill="#fff" />
		<path d="M207 339 c-5 -14 -7 -41 -5 -60 3 -31 8 -36 58 -57 71 -29 173 -26
238 7 23 12 42 24 42 26 0 3 -15 -2 -32 -12 -52 -27 -171 -24 -236 6 -49 23
-51 25 -54 70 -3 40 -4 43 -11 20z" fill="#fff" />
		<path d="M598 347 c-13 -30 -10 -143 2 -131 6 6 10 41 8 80 -2 43 -6 62 -10
51z" fill="#fff" />
	</g>
</svg>
